# xmcd
#
# Track frame offsets:
#	150
#	2212
#	17739
#	32773
#	46941
#	67062
#	86675
#	104685
#	119175
#	139027
#	155564
#	168694
#	187606
#	207994
#	229212
#
# Disc length: 3303 seconds
#
# Revision: 0
# Processed by: cddbd v1.5.2PL0 Copyright (c) Steve Scherf et al.
# Submitted via: audiograbber 1.83.01
#
DISCID=d40ce50f
DTITLE=Hollow Tip - Transporters and Shooters
DYEAR=2013
DGENRE=Rap
TTITLE0=Hollow Tip - Intro
TTITLE1=Hollow Tip, Rich KO - The Money
TTITLE2=Hollow Tip - Motivated
TTITLE3=Hollow Tip, The Gatlin, Smigg Dirtee - Get It Myself
TTITLE4=Hollow Tip, Mic-C, Rich KO - 5 Star
TTITLE5=D-Lo, Migg Dirtee, Mack Twon - Laying Up
TTITLE6=Hollow Tip, Rich KO - Dedicated To My Enemies
TTITLE7=Hollow Tip, Matt Blaque, Sleepdank, Equipto, Conscious Daughters, Kaz K
TTITLE7=yzah, Comma D - In My City
TTITLE8=Hollow Tip - Gotta Get It
TTITLE9=Hollow Tip, Afghani, T-Macc - Life 4 Life
TTITLE10=Hollow Tip - In My Own Lane
TTITLE11=Hollow Tip, Mic-C, RCenal - Whoppin Niggas
TTITLE12=Hollow Tip - Cream Raps
TTITLE13=Hollow Tip, Tre Mak - The Business
TTITLE14=Hollow Tip, Intl Skeam - Tryna Survive
EXTD=www.RapMusicGuide.com
EXTT0=
EXTT1=
EXTT2=
EXTT3=
EXTT4=
EXTT5=
EXTT6=
EXTT7=
EXTT8=
EXTT9=
EXTT10=
EXTT11=
EXTT12=
EXTT13=
EXTT14=
PLAYORDER=
